<?xml version="1.0" encoding="UTF-8" standalone="no"?>
<!DOCTYPE svg PUBLIC "-//W3C//DTD SVG 1.1//EN" "http://www.w3.org/Graphics/SVG/1.1/DTD/svg11.dtd">
<svg width="100%" height="100%" viewBox="0 0 50 50" version="1.1" xmlns="http://www.w3.org/2000/svg" xmlns:xlink="http://www.w3.org/1999/xlink" xml:space="preserve" xmlns:serif="http://www.serif.com/" style="fill-rule:evenodd;clip-rule:evenodd;stroke-linejoin:round;stroke-miterlimit:2;">
    <g transform="matrix(0.921088,0,0,1,-9.35293,17.1762)">
        <path d="M46.283,6.748C46.283,6.059 45.676,5.499 44.927,5.499L18.669,5.499C17.92,5.499 17.313,6.059 17.313,6.748L17.313,9.246C17.313,9.935 17.92,10.495 18.669,10.495L44.927,10.495C45.676,10.495 46.283,9.935 46.283,9.246L46.283,6.748Z" style="fill:rgb(255,195,2);"/>
    </g>
    <g transform="matrix(0.570197,0,0,1,-3.27811,33.8332)">
        <path d="M46.283,6.748C46.283,6.059 45.302,5.499 44.093,5.499L19.503,5.499C18.294,5.499 17.313,6.059 17.313,6.748L17.313,9.246C17.313,9.935 18.294,10.495 19.503,10.495L44.093,10.495C45.302,10.495 46.283,9.935 46.283,9.246L46.283,6.748Z" style="fill:rgb(255,195,2);"/>
    </g>
    <g transform="matrix(1.09653,0,0,1,-12.3903,8.84763)">
        <path d="M46.283,6.748C46.283,6.059 45.773,5.499 45.144,5.499L18.452,5.499C17.823,5.499 17.313,6.059 17.313,6.748L17.313,9.246C17.313,9.935 17.823,10.495 18.452,10.495L45.144,10.495C45.773,10.495 46.283,9.935 46.283,9.246L46.283,6.748Z" style="fill:rgb(255,195,2);"/>
    </g>
    <g transform="matrix(0.745642,0,0,1,-6.31552,25.5047)">
        <path d="M46.283,6.748C46.283,6.059 45.533,5.499 44.608,5.499L18.988,5.499C18.063,5.499 17.313,6.059 17.313,6.748L17.313,9.246C17.313,9.935 18.063,10.495 18.988,10.495L44.608,10.495C45.533,10.495 46.283,9.935 46.283,9.246L46.283,6.748Z" style="fill:rgb(255,195,2);"/>
    </g>
    <g transform="matrix(1.2707,0,0,1,-15.4056,0.173034)">
        <path d="M46.283,6.748C46.283,6.059 45.843,5.499 45.3,5.499L18.295,5.499C17.753,5.499 17.313,6.059 17.313,6.748L17.313,9.246C17.313,9.935 17.753,10.495 18.295,10.495L45.3,10.495C45.843,10.495 46.283,9.935 46.283,9.246L46.283,6.748Z" style="fill:rgb(255,195,2);"/>
    </g>
</svg>
