<?xml version="1.0" encoding="UTF-8" standalone="no"?>
<!DOCTYPE svg PUBLIC "-//W3C//DTD SVG 1.1//EN" "http://www.w3.org/Graphics/SVG/1.1/DTD/svg11.dtd">
<svg width="100%" height="100%" viewBox="0 0 50 50" version="1.1" xmlns="http://www.w3.org/2000/svg" xmlns:xlink="http://www.w3.org/1999/xlink" xml:space="preserve" xmlns:serif="http://www.serif.com/" style="fill-rule:evenodd;clip-rule:evenodd;stroke-linejoin:round;stroke-miterlimit:2;">
    <g transform="matrix(1,0,0,1,-5,0)">
        <path d="M17.606,18.075L21.72,18.075L21.72,8.665L42.13,8.665L42.13,41.335L21.72,41.335L21.72,31.925L17.606,31.925L17.606,41.391C17.606,43.633 19.423,45.45 21.665,45.45L42.186,45.45C44.427,45.45 46.244,43.633 46.244,41.391L46.244,8.609C46.244,6.367 44.427,4.55 42.186,4.55L21.665,4.55C19.423,4.55 17.606,6.367 17.606,8.609L17.606,18.075ZM14.182,27.32L14.182,28.464C14.182,28.774 14.016,29.059 13.746,29.212C13.477,29.364 13.147,29.36 12.881,29.2C11.302,28.252 8.66,26.664 7.116,25.736C6.858,25.581 6.7,25.301 6.7,25C6.7,24.699 6.858,24.419 7.116,24.264C8.66,23.336 11.302,21.748 12.881,20.8C13.147,20.64 13.477,20.636 13.746,20.788C14.016,20.941 14.182,21.226 14.182,21.536L14.182,22.68L31.066,22.68C31.294,22.68 31.512,22.771 31.674,22.932C31.835,23.093 31.925,23.311 31.925,23.539C31.925,24.372 31.925,25.628 31.925,26.461C31.925,26.689 31.835,26.907 31.674,27.068C31.512,27.229 31.294,27.32 31.066,27.32L14.182,27.32Z" style="fill:rgb(250,250,253);"/>
    </g>
</svg>
