<?xml version="1.0" encoding="UTF-8" standalone="no"?>
<!DOCTYPE svg PUBLIC "-//W3C//DTD SVG 1.1//EN" "http://www.w3.org/Graphics/SVG/1.1/DTD/svg11.dtd">
<svg width="100%" height="100%" viewBox="0 0 50 50" version="1.1" xmlns="http://www.w3.org/2000/svg" xmlns:xlink="http://www.w3.org/1999/xlink" xml:space="preserve" xmlns:serif="http://www.serif.com/" style="fill-rule:evenodd;clip-rule:evenodd;stroke-linejoin:round;stroke-miterlimit:2;">
    <path d="M21.39,24.591C20.33,22.829 19.72,20.767 19.72,18.563C19.72,12.096 24.97,6.846 31.437,6.846C37.904,6.846 43.154,12.096 43.154,18.563C43.154,25.03 37.904,30.28 31.437,30.28C29.233,30.28 27.171,29.67 25.409,28.61L11.889,42.13C11.617,42.402 11.249,42.554 10.864,42.554C10.48,42.554 10.112,42.402 9.84,42.13C9.236,41.526 8.474,40.764 7.87,40.16C7.598,39.888 7.446,39.52 7.446,39.136C7.446,38.751 7.598,38.383 7.87,38.111L21.39,24.591ZM31.437,11.241C35.478,11.241 38.759,14.522 38.759,18.563C38.759,22.604 35.478,25.885 31.437,25.885C27.396,25.885 24.115,22.604 24.115,18.563C24.115,14.522 27.396,11.241 31.437,11.241Z" style="fill:rgb(250,250,253);"/>
</svg>
